# xmcd
#
# Track frame offsets: 
#        150
#        23501
#        42458
#        67676
#        84278
#        104863
#        128106
#        159980
#        180673
#        202094
#
# Disc length: 3114 seconds
#
# Revision: 0
# Processed by: cddbd v1.5.2PL0 Copyright (c) Steve Scherf et al.
# Submitted via: ExactAudioCopy v1.3
#
DISCID=7d0c280a
DTITLE=Alvon - Alvon
DYEAR=1999
DGENRE=Chicago Blues
TTITLE0=Hoochie Coochie Man
TTITLE1=The Thrill is Gone
TTITLE2=Passion
TTITLE3=I Love To Play The Blues
TTITLE4=Sasifaction
TTITLE5=You
TTITLE6=Let's Straighten It Out
TTITLE7=If I Could Play
TTITLE8=Someone
TTITLE9=Daddys Home
EXTD=
EXTT0=
EXTT1=
EXTT2=
EXTT3=
EXTT4=
EXTT5=
EXTT6=
EXTT7=
EXTT8=
EXTT9=
PLAYORDER=
